<svg xmlns="http://www.w3.org/2000/svg" width="356.817" height="391.48"><defs><linearGradient id="A" x1="134.316" y1="95.546" x2="347.65" y2="352.127" gradientUnits="userSpaceOnUse"><stop offset="0" stop-color="#5abe34"/><stop offset="1" stop-color="#a1d52b"/></linearGradient></defs><path d="M337.853 306.084c13.135 41.333 27.609 64.567 27.609 64.567S-1.463 302.435 123.983 131.212c141.809-74.269 183.593 83.812 213.87 174.872" fill="url(#A)" transform="matrix(1.333333 0 0 -1.333333 -130.46574 494.20136)"/><path d="M334.448 16.116s-25.715 18.381-62.2 48.522c-36.527 30.039-83.723 72.074-126.594 118.046-21.451 22.96-41.667 47.012-59.038 70.564-4.376 5.875-8.588 11.71-12.475 17.565-4.039 5.753-7.772 11.516-11.261 17.208-3.641 5.6-6.895 11.2-9.945 16.667-3.193 5.396-5.977 10.751-8.538 15.933-2.693 5.12-5.08 10.098-7.089 14.943-2.101 4.794-4.233 9.313-5.712 13.709l-4.437 12.22-3.05 10.527c-2.081 6.314-2.57 11.455-3.448 14.862-1.324 4.406-4.338 5.112-7.257 4.314l-8.782-2.342c-2.646-1.123-4.862-1.805-2.722-8.702 1.091-3.713.983-6.908 3.482-13.651l3.784-11.312 5.284-12.903c1.795-4.651 4.223-9.323 6.65-14.311 2.346-5.049 5.059-10.2 8.099-15.433 2.907-5.324 6.038-10.792 9.578-16.249 3.397-5.559 7.007-11.23 10.996-16.851 3.835-5.732 7.915-11.496 12.301-17.238 4.233-5.855 8.782-11.628 13.485-17.463 18.727-23.338 40.188-46.849 62.772-69.157 45.136-44.646 94.157-84.824 131.939-113.446 37.751-28.693 64.179-46.023 64.179-46.023" fill="#568211"/></svg>
