<?xml version="1.0" standalone="no"?>
<!DOCTYPE svg PUBLIC "-//W3C//DTD SVG 20010904//EN"
 "http://www.w3.org/TR/2001/REC-SVG-20010904/DTD/svg10.dtd">
<svg version="1.0" xmlns="http://www.w3.org/2000/svg"
 width="782.000000pt" height="782.000000pt" viewBox="0 0 782.000000 782.000000"
 preserveAspectRatio="xMidYMid meet">
<g transform="translate(0.000000,782.000000) scale(0.100000,-0.100000)"
fill="#000000" stroke="none">
<path d="M7395 7804 c-33 -7 -71 -15 -85 -17 -14 -3 -43 -10 -65 -16 -22 -5
-58 -13 -80 -17 -22 -3 -43 -8 -46 -10 -3 -2 -21 -6 -40 -9 -19 -3 -42 -8 -51
-11 -9 -3 -26 -7 -37 -9 -12 -3 -31 -8 -43 -11 -13 -3 -34 -7 -48 -9 -14 -2
-97 -22 -185 -44 -88 -23 -169 -43 -180 -45 -11 -3 -21 -5 -22 -7 -2 -1 -6 -2
-10 -3 -41 -10 -72 -17 -89 -20 -12 -3 -52 -13 -90 -24 -38 -11 -107 -30 -154
-42 -47 -12 -107 -29 -135 -37 -27 -8 -57 -17 -65 -19 -32 -7 -331 -94 -445
-129 -66 -20 -124 -38 -130 -39 -5 -1 -14 -4 -20 -7 -8 -5 -41 -15 -75 -24 -3
0 -34 -11 -70 -23 -36 -12 -68 -22 -72 -22 -7 0 -25 -6 -103 -36 -24 -8 -35
-12 -55 -17 -8 -2 -28 -9 -43 -15 -15 -7 -40 -15 -55 -18 -15 -4 -31 -9 -37
-13 -5 -3 -14 -6 -20 -7 -34 -6 -675 -245 -789 -294 -25 -10 -46 -16 -46 -12
0 4 -4 2 -8 -4 -4 -5 -29 -18 -57 -29 -27 -10 -70 -28 -95 -39 -25 -11 -47
-21 -50 -21 -24 -6 -204 -87 -217 -97 -7 -6 -13 -8 -13 -4 0 4 -15 -1 -32 -11
-18 -9 -35 -18 -38 -18 -3 -1 -27 -12 -55 -25 -27 -13 -52 -24 -55 -25 -33
-10 -520 -252 -537 -267 -7 -6 -13 -7 -13 -2 0 5 -4 4 -8 -2 -4 -6 -50 -33
-102 -61 -52 -27 -111 -59 -130 -70 -90 -52 -146 -84 -160 -93 -8 -5 -51 -30
-95 -57 -44 -26 -107 -65 -140 -86 -110 -72 -170 -112 -175 -117 -3 -3 -13 -9
-22 -15 -29 -17 -129 -87 -199 -140 -193 -147 -225 -171 -240 -185 -8 -8 -37
-33 -63 -55 -144 -120 -379 -350 -485 -475 -36 -41 -68 -76 -73 -78 -4 -2 -8
-10 -8 -17 0 -7 -3 -15 -8 -17 -11 -5 -112 -137 -112 -147 0 -5 -3 -11 -7 -13
-9 -4 -93 -126 -93 -135 0 -4 -6 -14 -14 -22 -7 -9 -25 -38 -40 -64 -14 -26
-33 -59 -42 -72 -9 -14 -12 -25 -8 -25 5 0 4 -4 -1 -8 -12 -9 -55 -95 -55
-111 0 -6 -4 -11 -10 -11 -5 0 -10 -8 -10 -18 0 -10 -6 -26 -13 -37 -8 -11
-16 -29 -20 -40 -3 -11 -17 -54 -32 -95 -15 -41 -32 -91 -37 -110 -17 -65 -30
-115 -33 -133 -2 -10 -6 -26 -9 -35 -3 -9 -8 -37 -11 -62 -4 -24 -8 -47 -10
-50 -26 -42 -26 -525 -1 -660 3 -14 10 -54 16 -90 11 -72 71 -302 93 -360 3
-8 18 -49 33 -90 26 -73 40 -107 91 -220 49 -109 57 -126 80 -163 13 -20 20
-37 17 -37 -4 0 0 -8 9 -18 8 -9 21 -28 27 -42 6 -14 16 -34 23 -45 7 -11 23
-38 36 -60 13 -22 51 -81 83 -132 l60 -92 -24 -43 c-12 -24 -26 -45 -29 -48
-5 -4 -202 -404 -229 -465 -39 -87 -140 -347 -140 -359 0 -9 -5 -16 -12 -16
-6 0 -9 -3 -6 -6 4 -3 -9 -51 -28 -107 -40 -118 -86 -296 -79 -308 3 -4 1 -10
-4 -13 -16 -10 -23 -96 -11 -126 14 -34 95 -65 247 -93 l62 -11 35 35 c33 35
42 61 62 175 3 16 7 37 10 46 3 9 7 26 9 39 2 12 12 47 21 78 9 31 17 61 18
66 7 29 40 137 58 185 11 30 24 71 30 90 5 19 13 40 17 45 4 6 13 30 21 55 7
25 17 49 22 54 4 6 8 16 8 24 0 7 9 34 21 60 12 26 28 63 36 82 9 19 24 53 34
75 9 22 35 79 56 126 51 115 66 137 84 122 8 -6 61 -32 119 -57 58 -26 114
-51 125 -56 27 -13 78 -33 90 -35 6 -2 31 -12 55 -23 25 -10 74 -29 110 -41
36 -12 72 -25 80 -28 8 -3 20 -7 25 -8 6 0 21 -6 35 -12 14 -6 41 -14 60 -18
19 -4 41 -12 48 -17 6 -6 12 -8 12 -5 0 3 29 -3 65 -13 36 -10 68 -19 70 -19
3 -1 6 -1 8 -2 2 -1 10 -2 57 -13 14 -3 36 -8 50 -11 28 -6 64 -12 113 -20 17
-3 43 -7 57 -10 28 -5 86 -13 170 -22 66 -8 492 -7 535 0 17 3 53 8 80 11 43
5 97 15 225 42 14 3 43 10 65 16 22 7 42 12 45 13 71 20 100 29 125 40 35 15
98 39 105 41 18 3 199 91 280 135 67 37 186 115 193 126 4 7 13 13 18 13 13 0
107 71 219 166 93 78 257 239 335 328 28 32 61 71 75 86 14 16 35 41 47 55 26
31 158 205 192 255 85 122 151 220 151 225 0 3 14 24 30 47 17 22 30 47 30 54
0 7 4 14 9 16 4 2 32 46 62 98 29 52 56 97 59 100 6 5 35 59 112 210 24 47 46
87 51 88 4 2 7 8 7 14 0 6 29 69 64 142 35 72 76 158 91 191 29 64 145 330
150 345 3 9 18 45 35 85 49 114 215 552 275 725 20 58 40 114 45 125 10 21
179 518 185 545 2 8 47 146 100 305 52 160 118 360 146 445 27 85 54 164 59
175 4 11 16 45 25 75 9 30 19 62 22 70 3 8 7 20 9 25 12 43 123 340 150 402 8
17 14 33 14 36 0 2 7 21 15 41 8 20 14 37 13 38 -1 2 5 17 14 33 9 17 44 95
78 175 35 80 93 209 131 288 38 78 68 145 68 148 0 4 3 10 8 13 4 3 23 35 42
71 47 92 92 173 104 188 12 15 4 14 -78 -4z"/>
</g>
</svg>
